<?xml version="1.0" encoding="UTF-8"?>
<svg width="12px" height="24px" viewBox="0 0 12 24" version="1.1" xmlns="http://www.w3.org/2000/svg" xmlns:xlink="http://www.w3.org/1999/xlink">
    <!-- Generator: Sketch 50.2 (55047) - http://www.bohemiancoding.com/sketch -->
    <title>Group 5</title>
    <desc>Created with Sketch.</desc>
    <defs></defs>
    <g id="Design-V2" stroke="none" stroke-width="1" fill="none" fill-rule="evenodd">
        <g id="Calc-/-open-/-320" transform="translate(-32.000000, -200.000000)" fill="#D4D4D4">
            <g id="Total">
                <g id="Group-3" transform="translate(32.000000, 44.000000)">
                    <g id="fromto" transform="translate(0.000000, 120.000000)">
                        <g id="Group-5" transform="translate(0.000000, 36.000000)">
                            <path d="M17,10.25 L17,11.75 L-4.25,11.75 C-4.66421356,11.75 -5,11.4142136 -5,11 L-5,11 C-5,10.5857864 -4.66421356,10.25 -4.25,10.25 L17,10.25 Z" id="Combined-Shape" fill-rule="nonzero" transform="translate(6.000000, 11.000000) rotate(-270.000000) translate(-6.000000, -11.000000) "></path>
                            <path d="M3.10807344,14.5030347 L3.10807344,14.5030347 C3.45368112,14.2202634 3.95821952,14.2490827 4.26938043,14.5693688 L8.87127492,19.3062192 C9.24827436,19.6942746 9.24827436,20.3117948 8.87127492,20.6998502 L4.26938043,25.4367006 C3.95821952,25.7569866 3.45368112,25.785806 3.10807344,25.5030347 L3.10807344,25.5030347 C2.80263425,25.2531287 2.75761572,24.8029324 3.00752174,24.4974932 C3.02255767,24.4791161 3.03850024,24.4614998 3.05529011,24.4447099 L7.49696533,20.0030347 L3.05529011,15.5613595 C2.77623266,15.282302 2.77623266,14.8298605 3.05529011,14.550803 C3.07207998,14.5340132 3.08969628,14.5180706 3.10807344,14.5030347 Z" id="Line-7" transform="translate(6.000000, 20.003035) rotate(-270.000000) translate(-6.000000, -20.003035) "></path>
                        </g>
                    </g>
                </g>
            </g>
        </g>
    </g>
</svg>